<svg xmlns="http://www.w3.org/2000/svg" xml:space="preserve" width="50" height="47.478" viewBox="0 0 13.229 12.562"><path d="M148.577 78.718c-4.19.014-8.673.292-12.538.292-8.626 0-17.08-.303-24.566.25-6.591.488-11.559 2.168-16.306 4.704-1.305.697-2.26 1.898-2.263 3.377a3.664 3.664 0 0 0 3.664 3.665 3.625 3.625 0 0 0 1.844-.504l.024-.013c3.304-1.844 7.185-3.217 11.784-3.708 11.926-1.276 20.22 2.997 25.818 8.021 6.148 5.516 11.839 16.753 9.776 29.078-1.234 7.374-4.643 13.595-9.942 18.423l-.014.013c-.962.876-1.756 1.893-1.757 3.194a3.785 3.785 0 0 0 3.785 3.785 3.785 3.785 0 0 0 2.396-.862c.152-.119.328-.276.414-.355 4.331-4.04 7.645-9.008 9.882-14.42 3.852-9.32 8.507-20.527 12.533-30.332 1.217-2.962 3.61-6.727 4.011-10.277.8-7.076-2.983-11.15-7.771-13.035-2.687-1.057-6.583-1.308-10.773-1.295zm4.081 4.507c2.672.113 5.276 2.037 4.938 5.561-.408 4.257-4.664 7.232-6.517 10.027h6.517c.392.575.392 2.433 0 3.008-3.271-.322-6.924-.262-10.528-.251-1.534-5.627 7.98-9.407 7.019-14.037-.454-2.184-3.573-2.252-3.008 1.003h-3.76c-.07-3.724 2.668-5.424 5.34-5.311z" style="display:inline;opacity:1;fill:#ff6000;fill-opacity:1;stroke-width:.264583" transform="matrix(.17799 0 0 .17799 -16.536 -14.011)"/><g style="display:inline"><path fill="#a179dc" d="M7.52 5.368a.743.743 0 0 0-.09-.374.715.715 0 0 0-.272-.264c-.997-.575-1.995-1.148-2.991-1.723a.734.734 0 0 0-.796.008C2.974 3.249.987 4.387.395 4.73a.692.692 0 0 0-.363.638v3.468c0 .139.03.261.088.367.06.109.151.2.275.271.592.343 2.579 1.481 2.976 1.716a.735.735 0 0 0 .796.007c.996-.575 1.995-1.148 2.992-1.723a.713.713 0 0 0 .275-.271.747.747 0 0 0 .087-.367V5.368"/><path fill="#280068" d="M3.788 7.09.12 9.204c.06.109.151.2.275.271.592.343 2.579 1.481 2.976 1.716a.735.735 0 0 0 .796.007c.996-.575 1.995-1.148 2.992-1.723a.713.713 0 0 0 .275-.271L3.788 7.09"/><path fill="#390091" d="M7.52 5.368a.743.743 0 0 0-.09-.374L3.787 7.091l3.646 2.112a.748.748 0 0 0 .087-.367V5.368"/><path fill="#fff" d="M5.948 6.301v.395h.395v-.395h.197v.395h.395v.197H6.54v.395h.395v.198H6.54v.394h-.197v-.394h-.395v.394h-.197v-.394h-.395v-.198h.395v-.395h-.395v-.197h.395v-.395zm.395.592h-.395v.395h.395z"/><path fill="#fff" d="M3.796 4.318c1.03 0 1.93.56 2.41 1.391l-.004-.008-1.212.698a1.385 1.385 0 0 0-1.178-.683h-.016a1.386 1.386 0 1 0 1.208 2.066l-.006.01 1.21.7a2.783 2.783 0 0 1-2.38 1.394h-.032a2.783 2.783 0 1 1 0-5.568z"/></g></svg>