<svg xmlns="http://www.w3.org/2000/svg" xml:space="preserve" width="50" height="50" viewBox="0 0 13.229 13.229"><path d="M9.91 0 4.881.039c-.545.004-1.073.02-1.577.057A6.957 6.957 0 0 0 .403.934c-.233.124-.403.338-.403.6a.652.652 0 0 0 .98.563l.004-.002a5.434 5.434 0 0 1 2.098-.66c2.123-.227 3.599.534 4.595 1.428 1.095.982 2.108 2.982 1.74 5.175-.22 1.313-.826 2.42-1.77 3.28l-.002.002c-.171.156-.312.337-.312.568a.674.674 0 0 0 1.1.52c.027-.02.058-.049.073-.063a7.327 7.327 0 0 0 1.76-2.566l2.679-6.357c.126-.287.232-.583.265-.871.142-1.26-.531-1.985-1.383-2.32-.436-.172-1.05-.224-1.72-.23L9.91 0Zm.725.802c.476.02.94.363.88.99-.073.758-.83 1.287-1.16 1.785h1.16c.07.102.07.433 0 .535-.583-.057-1.233-.047-1.874-.045-.274-1.001 1.42-1.674 1.249-2.498-.081-.389-.636-.4-.536.179h-.669c-.012-.663.475-.966.95-.946Z" style="display:inline;opacity:1;fill:#ff6000;fill-opacity:1;stroke-width:.0470931" transform="translate(0 .334)"/><g style="display:inline"><path fill="#a179dc" d="M7.52 5.702a.743.743 0 0 0-.09-.374.715.715 0 0 0-.272-.264C6.16 4.489 5.163 3.916 4.167 3.34a.734.734 0 0 0-.796.008C2.974 3.583.987 4.72.395 5.064a.692.692 0 0 0-.363.638V9.17c0 .139.03.26.088.367.06.109.15.2.275.27.592.344 2.579 1.482 2.976 1.717a.735.735 0 0 0 .796.007c.996-.575 1.995-1.148 2.992-1.723a.713.713 0 0 0 .275-.271.747.747 0 0 0 .087-.367V5.702"/><path fill="#280068" d="M3.788 7.424.12 9.538c.06.109.15.2.275.27.592.344 2.579 1.482 2.976 1.717a.735.735 0 0 0 .796.007c.996-.575 1.995-1.148 2.992-1.723a.713.713 0 0 0 .275-.271L3.788 7.424"/><path fill="#390091" d="M7.52 5.702a.743.743 0 0 0-.09-.374L3.787 7.425l3.646 2.112a.748.748 0 0 0 .087-.367V5.702"/><path fill="#fff" d="M5.948 6.635v.395h.395v-.395h.197v.395h.395v.197H6.54v.395h.395v.198H6.54v.394h-.197V7.82h-.395v.394H5.75V7.82h-.395v-.198h.395v-.395h-.395V7.03h.395v-.395Zm.395.592h-.395v.395h.395z"/><path fill="#fff" d="M3.796 4.652c1.03 0 1.93.56 2.41 1.39l-.004-.007-1.212.698a1.385 1.385 0 0 0-1.178-.683h-.016a1.386 1.386 0 1 0 1.208 2.066l-.006.01 1.21.7a2.783 2.783 0 0 1-2.38 1.394h-.032a2.784 2.784 0 1 1 0-5.568z"/></g></svg>