<svg xmlns="http://www.w3.org/2000/svg" width="50" height="50" fill="none"><path fill="#F89A0F" d="m37.456 1.262-19.008.148a91.03 91.03 0 0 0-5.96.215A26.294 26.294 0 0 0 1.523 4.793C.643 5.26 0 6.07 0 7.06a2.464 2.464 0 0 0 3.704 2.128l.015-.007a20.538 20.538 0 0 1 7.93-2.495c8.024-.858 13.602 2.018 17.367 5.397 4.138 3.712 7.967 11.271 6.576 19.56-.831 4.962-3.122 9.146-6.69 12.397l-.007.007c-.646.59-1.18 1.274-1.18 2.147a2.547 2.547 0 0 0 4.158 1.965c.102-.075.22-.185.276-.238a27.692 27.692 0 0 0 6.652-9.698l10.126-24.027c.476-1.085.877-2.203 1.001-3.292.537-4.762-2.007-7.502-5.227-8.769-1.648-.65-3.968-.846-6.5-.869l-.745-.004Zm2.74 3.032c1.799.075 3.553 1.372 3.326 3.741-.276 2.865-3.137 4.865-4.384 6.747h4.384c.264.385.264 1.637 0 2.022-2.204-.215-4.66-.178-7.083-.17-1.036-3.783 5.367-6.327 4.72-9.441-.306-1.47-2.403-1.512-2.025.676h-2.529c-.045-2.506 1.796-3.651 3.59-3.575Z"/><path fill="#A079DF" d="M28.422 21.551a2.807 2.807 0 0 0-.34-1.413 2.7 2.7 0 0 0-1.028-.998c-3.772-2.174-7.54-4.34-11.304-6.516a2.774 2.774 0 0 0-3.01.03c-1.5.888-9.01 5.186-11.247 6.486A2.616 2.616 0 0 0 .12 21.55V34.66c0 .525.113.982.333 1.387a2.6 2.6 0 0 0 1.039 1.02c2.237 1.3 9.748 5.602 11.248 6.49a2.778 2.778 0 0 0 3.008.026c3.765-2.173 7.54-4.339 11.309-6.512.434-.24.794-.594 1.04-1.024.226-.427.339-.904.328-1.387l-.004-13.108Z"/><path fill="#270068" d="M14.317 28.06.454 36.05a2.6 2.6 0 0 0 1.039 1.02c2.237 1.3 9.748 5.601 11.248 6.49a2.778 2.778 0 0 0 3.008.026c3.765-2.173 7.54-4.339 11.309-6.512.434-.24.794-.594 1.04-1.024l-13.781-7.99Z"/><path fill="#390091" d="M28.422 21.551a2.807 2.807 0 0 0-.34-1.413l-13.769 7.925 13.78 7.983c.227-.427.34-.904.33-1.387V21.55Z"/><path fill="#fff" d="M22.48 25.078v1.492h1.494v-1.492h.744v1.492h1.493v.745h-1.493v1.493h1.493v.748h-1.493v1.49h-.744v-1.49H22.48v1.49h-.748v-1.49H20.24v-.748h1.493v-1.493H20.24v-.745h1.493v-1.492h.748Zm1.494 2.237H22.48v1.493h1.493v-1.493Z"/><path fill="#fff" d="M14.347 17.583c3.893 0 7.295 2.116 9.109 5.253l-.015-.026-4.58 2.638a5.236 5.236 0 0 0-4.453-2.582h-.06a5.238 5.238 0 1 0 4.565 7.809l-.023.038 4.574 2.645a10.519 10.519 0 0 1-8.996 5.27h-.12a10.522 10.522 0 1 1 0-21.045Z"/></svg>
